<?xml version="1.0" encoding="utf-8"?>
<!-- Generator: Adobe Illustrator 26.3.0, SVG Export Plug-In . SVG Version: 6.00 Build 0)  -->
<svg version="1.1" id="Layer_1" xmlns="http://www.w3.org/2000/svg" xmlns:xlink="http://www.w3.org/1999/xlink" x="0px" y="0px"
	 viewBox="0 0 474 247" style="enable-background:new 0 0 474 247;" xml:space="preserve">
<style type="text/css">
	.st0{fill:none;}
	.st1{fill:#29ABE2;}
	.st2{fill:#1B1464;}
	.st3{fill:none;stroke:#1B1464;stroke-miterlimit:10;}
	.st4{fill:#1B1464;stroke:#1B1464;stroke-miterlimit:10;}
</style>
<g>
	<path class="st0" d="M51.41,119.42v36.16l-25.54-0.14l-8.4-0.04c-0.94-3.96-1.74-7.99-2.39-12.07l-1.98-0.01l-10.93-0.06
		c-0.6-3.96-1.07-7.99-1.41-12.06c-0.18-2.19-0.33-4.39-0.43-6.61c-0.09-1.81-0.15-3.63-0.18-5.45c-0.02-1.25-0.04-2.49-0.04-3.75
		c0-2.79,0.06-5.56,0.18-8.31c0.01-0.3,0.03-0.6,0.04-0.9v12.96l12.59,0.07h0.18l12.77,0.07L51.41,119.42z"/>
</g>
<g>
	<path class="st0" d="M51.41,72.86v34.51l-25.54-0.14l-12.77-0.07h-0.03c0.01-0.24,0.02-0.49,0.03-0.73V91.3
		c4.37-0.61,8.63-1.66,12.77-3.12c1.98-0.69,3.94-1.48,5.86-2.36c2.36-1.07,4.66-2.27,6.92-3.6c2.88-1.7,5.66-3.6,8.35-5.69
		C48.49,75.37,49.97,74.14,51.41,72.86z"/>
</g>
<g>
	<path class="st0" d="M80.44,24.71v11.7l-0.81-0.01C79.98,32.52,80.25,28.63,80.44,24.71z"/>
</g>
<g>
	<path class="st0" d="M125.91,113.12l-0.01,5.59l0,0.13c0,0.33-0.01,0.67-0.03,1c-0.04,1.69-0.1,3.38-0.19,5.06v-5.06l-10.41-0.06
		l-12.77-0.07l-12.77-0.07V90.2c3.06,2,6.2,3.8,9.41,5.38c1.11,0.55,2.23,1.07,3.36,1.57c4.15,1.83,8.42,3.29,12.77,4.4
		c3.37,0.86,6.8,1.49,10.26,1.9c0.05,0.81,0.1,1.61,0.15,2.42c0.03,0.64,0.07,1.28,0.09,1.92
		C125.84,109.57,125.89,111.35,125.91,113.12z"/>
</g>
<g>
	<path class="st0" d="M-10.07,159.48c-1.05,1.67-2.14,3.3-3.25,4.89c-0.38,0.56-0.78,1.12-1.17,1.67c-0.42,0.58-0.83,1.15-1.26,1.72
		v8.66l0.86,0c-0.29,0.34-0.57,0.68-0.86,1.01c-1.24,1.48-2.52,2.92-3.82,4.32c-0.77,0.83-1.54,1.63-2.33,2.43
		c-2.14,2.19-4.35,4.27-6.62,6.25c-0.24,0.21-0.49,0.42-0.73,0.64c-1.77,1.51-3.58,2.96-5.42,4.34v-36.07l6.15,0.03l6.62,0.04
		l4.1,0.02l2.05,0.01L-10.07,159.48z"/>
</g>
<g>
	<path class="st0" d="M117.97,185.87c-0.59,1.3-1.19,2.59-1.8,3.86c-0.3,0.62-0.6,1.23-0.9,1.84v0.54H115
		c-1.06,2.1-2.17,4.18-3.33,6.22l-7.54-0.04l-1.63-0.01l-6.15-0.03l-6.62-0.04l-6.15-0.03v-12.49l6.15,0.03l6.62,0.04l6.15,0.03
		l8.27,0.05l4.5,0.02L117.97,185.87z"/>
</g>
<g>
	<path class="st0" d="M-2.98,159.52c0,0.01-0.01,0.02-0.01,0.02v-0.02H-2.98z"/>
</g>
<g>
	<path class="st0" d="M-152.91,129.62v43.43c-1.37-1.11-2.72-2.26-4.06-3.43c-0.84-0.72-1.64-1.43-2.46-2.23l-2.4-2.34l-0.2-0.02
		c-0.45-0.42-0.89-0.84-1.33-1.27c-1.72-1.66-3.4-3.37-5.08-5.11l-4.63-0.03l-8.58-0.05c-0.63-0.72-1.25-1.45-1.87-2.19
		c-1.87-2.22-3.72-4.49-5.52-6.82c-1.67-2.16-3.31-4.37-4.93-6.61c-1.26-1.76-2.51-3.55-3.73-5.37c-1.82-2.69-3.58-5.44-5.3-8.25
		l9.03,0.06l2.49,0.01l7.96,0.05l4.67,0.02l5.78,0.04l9.7,0.06L-152.91,129.62z"/>
</g>
<g>
	<path class="st0" d="M-151.23,174.42l-1.69-0.01v-1.36C-152.35,173.51-151.79,173.97-151.23,174.42z"/>
</g>
<g>
	<path class="st0" d="M131.09,168.09c-1.23,4.11-2.61,8.12-4.12,12.03c-0.42,1.09-0.85,2.18-1.3,3.26v-3.27l-5.25-0.03l-5.16-0.03
		l-1.92-0.01l-10.85-0.06l-6.15-0.03l-6.62-0.04l-6.15-0.03l-6.62-0.04v63.4l2.14,0.01c-0.71,0.48-1.42,0.95-2.14,1.4
		c-2.17,1.38-4.38,2.67-6.62,3.86c-0.31,0.17-0.62,0.33-0.93,0.49c-0.11-0.06-0.22-0.12-0.34-0.18c-1.65-0.86-3.27-1.77-4.88-2.74
		v-42.2l-6.15-0.04l-6.62-0.04l-6.15-0.04l-6.62-0.04v0.75c-0.18-0.25-0.35-0.5-0.51-0.75l-6.12-0.04l-1.67-0.01
		c-0.61-0.98-1.19-1.92-1.75-2.86c-0.58-0.98-1.16-1.97-1.72-2.97c-0.34-0.6-0.68-1.21-1.01-1.82c-0.79-1.46-1.57-2.94-2.31-4.43
		c-0.4-0.8-0.79-1.61-1.18-2.42c-0.61-1.28-1.21-2.56-1.78-3.85l5.27,0.03l1.95,0.01l4.2,0.02l6.62,0.04l6.62,0.04l6.15,0.04
		l6.62,0.04l6.15,0.03v-5.8l-6.15-0.03l-6.62-0.04l-6.15-0.03l-6.62-0.04l-6.62-0.04l-6.15-0.03l-0.61,0l-7.11-0.04l-5.05-0.03v3.81
		c-0.52-1.26-1.02-2.53-1.51-3.82c-1.49-3.92-2.86-7.96-4.08-12.08l5.6,0.03l7.72,0.04l5.05,0.03l6.15,0.04l13.25,0.07l6.15,0.04
		l6.62,0.04l6.15,0.04V58.9c1.83-2.43,3.57-4.97,5.22-7.62c0.05,0.07,0.09,0.14,0.13,0.2c2.3,3.67,4.78,7.15,7.43,10.41v105.89
		l12.77,0.07v-36.16l12.77,0.07l12.77,0.07l9.9,0.05c-0.37,4.06-0.89,8.08-1.54,12.05c-0.66,4.07-1.47,8.09-2.43,12.04
		c-0.98,4.08-2.11,8.1-3.39,12.04l7.87,0.04L131.09,168.09z"/>
</g>
<g>
	<path class="st0" d="M-10.07,159.48c-1.05,1.67-2.14,3.3-3.25,4.89c-0.38,0.56-0.78,1.12-1.17,1.67c-0.42,0.58-0.83,1.15-1.26,1.72
		c-0.37,0.5-0.75,1-1.14,1.5c-1.19,1.54-2.42,3.07-3.67,4.54c-0.44,0.52-0.88,1.04-1.34,1.57c-0.29,0.33-0.59,0.67-0.88,1
		c-0.46,0.52-0.94,1.04-1.41,1.55c-1.2,1.29-2.42,2.55-3.68,3.78c-0.21,0.21-0.43,0.43-0.65,0.64c-1.37,1.32-2.76,2.6-4.17,3.83
		l-0.71,0.62c-0.42,0.36-0.85,0.72-1.27,1.07v-28.51l6.15,0.03l6.62,0.04l4.1,0.02l2.05,0.01L-10.07,159.48z"/>
</g>
<g>
	<path class="st0" d="M117.97,185.87c-0.59,1.3-1.19,2.59-1.8,3.86c-0.3,0.62-0.6,1.23-0.9,1.84c-0.09,0.18-0.18,0.36-0.27,0.54
		c-1.06,2.1-2.17,4.18-3.33,6.22l-7.54-0.04l-1.63-0.01l-6.15-0.03l-6.62-0.04l-6.15-0.03v-12.49l6.15,0.03l6.62,0.04l6.15,0.03
		l8.27,0.05l4.5,0.02L117.97,185.87z"/>
</g>
<g>
	<path class="st0" d="M-152.91,129.62v43.43c-1.37-1.11-2.72-2.26-4.06-3.43c-0.84-0.72-1.64-1.43-2.46-2.23l-2.4-2.34l-0.2-0.02
		c-0.45-0.42-0.89-0.84-1.33-1.27c-1.72-1.66-3.4-3.37-5.08-5.11c-1.57-1.64-3.11-3.31-4.63-5.02c-0.42-0.47-0.84-0.95-1.25-1.43
		c-0.58-0.67-1.17-1.36-1.76-2.05c-0.14-0.17-0.28-0.34-0.42-0.51c-2.41-2.86-4.75-5.81-7.02-8.85c-0.78-1.04-1.55-2.09-2.31-3.15
		c-1.31-1.81-2.58-3.64-3.82-5.49c-0.61-0.9-1.22-1.82-1.84-2.76l7.96,0.05l4.67,0.02l5.78,0.04l9.7,0.06L-152.91,129.62z"/>
</g>
<g>
	<path class="st0" d="M122.78,173.84c-0.51,1.44-1.04,2.88-1.58,4.29c-0.27,0.71-0.53,1.35-0.77,1.96l-5.16-0.03l-1.92-0.01
		l-10.85-0.06l-6.15-0.03l-6.62-0.04l-6.15-0.03l-6.62-0.04v57.7c-0.47,0.33-0.95,0.66-1.42,0.98c-0.79,0.53-1.41,0.94-1.98,1.29
		c-1.07,0.68-2.14,1.33-3.22,1.96c-0.31,0.18-0.62,0.36-0.93,0.53c-0.65-0.37-1.29-0.75-1.93-1.12c-1.12-0.67-2.22-1.36-3.3-2.07
		v-35.24l-6.15-0.04l-6.62-0.04l-6.15-0.04l-6.62-0.04v0.75c-0.18-0.25-0.35-0.5-0.51-0.75l-6.12-0.04l-1.67-0.01
		c-0.61-0.98-1.19-1.92-1.75-2.86c-0.58-0.98-1.16-1.97-1.72-2.97c-0.34-0.6-0.68-1.21-1.01-1.82c-0.79-1.46-1.57-2.94-2.31-4.43
		c-0.4-0.8-0.79-1.61-1.18-2.42c-0.61-1.28-1.21-2.56-1.78-3.85l5.27,0.03l1.95,0.01l4.2,0.02l6.62,0.04l6.62,0.04l6.15,0.04
		l6.62,0.04l6.15,0.03v-5.8l-6.15-0.03l-6.62-0.04l-6.15-0.03l-6.62-0.04l-6.62-0.04l-6.15-0.03l-0.61,0l-7.11-0.04
		c-0.26-0.64-0.51-1.3-0.78-2.01c-0.53-1.4-1.05-2.82-1.55-4.25l7,0.04l3.02,0.02h0.03l6.15,0.04l13.25,0.07l6.15,0.04l6.62,0.04
		l6.15,0.03l6.15,0.04V63.22c0.16,0.21,0.32,0.41,0.47,0.61v109.72l6.15,0.04l6.62,0.04l6.15,0.04l6.15,0.04v-36.16l6.62,0.04
		l12.77,0.07l3.07,0.02c-0.24,1.8-0.5,3.6-0.79,5.39c-0.05,0.29-0.09,0.57-0.14,0.86c-0.6,3.54-1.31,7.06-2.13,10.5
		c-0.02,0.09-0.04,0.19-0.07,0.28c-0.1,0.42-0.2,0.84-0.31,1.26c-0.88,3.52-1.88,7-2.97,10.36l-0.54,1.67l-1.88,5.79l5.77,0.03
		l0.53,0L122.78,173.84z"/>
</g>
<g>
	<path class="st0" d="M51.41,88.61v18.76l-25.54-0.14l-12.77-0.07h-0.03c0.01-0.24,0.02-0.49,0.03-0.73c0.05-1,0.11-1.99,0.18-2.98
		c4.27-0.5,8.48-1.35,12.6-2.53c4.36-1.25,8.63-2.87,12.77-4.84c0.57-0.27,1.13-0.54,1.69-0.83C44.13,93.34,47.83,91.12,51.41,88.61
		z"/>
</g>
<g>
	<path class="st0" d="M51.41,119.42v36.16l-25.54-0.14l-8.4-0.04c-0.94-3.96-1.74-7.99-2.39-12.07c-0.64-3.98-1.14-8-1.5-12.06
		c-0.21-2.33-0.37-4.67-0.48-7.01c-0.09-1.67-0.15-3.36-0.18-5.04h0.18l12.77,0.07L51.41,119.42z"/>
</g>
<g>
	<path class="st1" d="M138.68,113.07l-0.01,5.79l0,0.25c0,0.27-0.01,0.54-0.02,0.81c-0.09,4.06-0.32,8.08-0.67,12.05
		c-0.35,4.07-0.84,8.09-1.45,12.05c-0.63,4.08-1.39,8.1-2.28,12.05c-0.92,4.09-1.97,8.11-3.16,12.04l-5.42-0.03l-7.87-0.04
		c1.28-3.94,2.41-7.96,3.39-12.04c0.96-3.96,1.76-7.97,2.43-12.04c0.65-3.97,1.17-7.99,1.54-12.05l0.51,0v-7
		c0.09-1.68,0.16-3.37,0.19-5.06c0.01-0.33,0.02-0.67,0.03-1l0-0.13l0.01-5.59c-0.02-1.78-0.07-3.56-0.15-5.34
		c-0.02-0.64-0.06-1.28-0.09-1.92c-0.04-0.81-0.09-1.61-0.15-2.42c-3.46-0.41-6.89-1.04-10.26-1.9c-4.35-1.11-8.62-2.58-12.77-4.4
		c-1.13-0.5-2.25-1.02-3.36-1.57c-3.21-1.58-6.35-3.38-9.41-5.38v29.44l12.77,0.07l12.77,0.07l10.41,0.06v5.06
		c-0.12,2.34-0.29,4.67-0.51,6.99l-9.9-0.05l-12.77-0.07l-12.77-0.07v36.16l-12.77-0.07V61.89c1.54,1.9,3.13,3.72,4.78,5.46
		c2.55,2.7,5.22,5.21,7.99,7.51c0.79,0.66,1.59,1.3,2.41,1.92c3.32,2.54,6.77,4.81,10.36,6.75c1.81,0.99,3.65,1.89,5.53,2.71
		c2.37,1.04,4.79,1.95,7.25,2.71c3.4,1.06,6.87,1.84,10.41,2.34c3.01,0.43,6.07,0.65,9.18,0.65c0.79,0,1.59-0.02,2.38-0.04
		c0.16,1.29,0.31,2.59,0.44,3.89c0.42,3.97,0.71,8,0.87,12.06C138.62,109.58,138.67,111.32,138.68,113.07z"/>
</g>
<g>
	<path class="st0" d="M32.18,274.44c-1.13,1.67-2.28,3.31-3.47,4.89c-0.21,0.28-0.42,0.55-0.63,0.83c-1.05,1.39-2.13,2.74-3.23,4.06
		c-1.11,1.34-2.24,2.64-3.4,3.9c-1,1.1-2.01,2.17-3.04,3.21c-1.02,1.03-2.06,2.04-3.11,3.01v-20l6.15,0.03l6.62,0.04L32.18,274.44z"
		/>
</g>
<g>
	<path class="st0" d="M110.77,185.83c-0.99,2.11-2.04,4.19-3.13,6.23c-0.16,0.32-0.33,0.63-0.5,0.94c-0.97,1.79-1.98,3.55-3.01,5.27
		l-1.63-0.01l-6.15-0.03l-6.62-0.04l-6.15-0.03v-12.49l6.15,0.03l6.62,0.04l6.15,0.03L110.77,185.83z"/>
</g>
<g>
	<path class="st0" d="M-152.91,129.62v29.66c-0.2-0.18-0.4-0.37-0.6-0.55c-3.09-2.85-6.11-5.85-9.03-9.02
		c-0.28-0.29-0.54-0.58-0.81-0.88c-3.24-3.52-6.37-7.23-9.39-11.12c-0.1-0.13-0.21-0.27-0.31-0.4c-1.97-2.54-3.9-5.16-5.78-7.85
		l5.78,0.04l9.7,0.06L-152.91,129.62z"/>
</g>
<g>
	<path class="st0" d="M125.16,131.89c-0.37,4.06-0.89,8.08-1.54,12.05c-0.66,4.07-1.47,8.09-2.43,12.04
		c-0.98,4.08-2.11,8.1-3.39,12.04c-0.63,1.95-1.3,3.88-2.01,5.79c-0.17,0.48-0.35,0.95-0.53,1.42c-0.61,1.62-1.25,3.23-1.92,4.82
		l-10.85-0.06l-6.15-0.03l-6.62-0.04l-6.15-0.03l-6.62-0.04v49.79c-2.16,1.68-4.37,3.25-6.62,4.7c-0.31,0.2-0.62,0.4-0.93,0.59
		c-1.77-1.11-3.51-2.29-5.22-3.54v-27.5l-6.15-0.04l-6.62-0.04l-6.15-0.04l-6.62-0.04v0.75c-0.18-0.25-0.35-0.5-0.51-0.75
		c-1.27-1.89-2.5-3.84-3.69-5.84c-0.83-1.39-1.64-2.81-2.43-4.25c-0.36-0.67-0.73-1.33-1.08-2.01c-0.02-0.04-0.04-0.08-0.06-0.12
		c-1.06-2.02-2.08-4.07-3.05-6.15l4.2,0.02l6.62,0.04l6.62,0.04l6.15,0.04l6.62,0.04l6.15,0.03v-5.8l-6.15-0.03l-6.62-0.04
		l-6.15-0.03l-6.62-0.04l-6.62-0.04l-6.15-0.03l-0.61,0c-0.86-2.06-1.67-4.15-2.44-6.27c-0.7-1.92-1.37-3.85-2-5.81l5.05,0.03
		l6.15,0.04l13.25,0.07l6.15,0.04l6.62,0.04l6.15,0.04V77.89c0.42-0.41,0.83-0.83,1.23-1.25c1.36-1.39,2.69-2.84,3.98-4.32
		c0.31,0.36,0.62,0.71,0.93,1.06c0.16,0.17,0.31,0.35,0.47,0.52c0.86,0.95,1.74,1.88,2.62,2.79c1.15,1.19,2.33,2.34,3.53,3.46v87.64
		l12.77,0.07v-36.16l12.77,0.07l12.77,0.07L125.16,131.89z"/>
</g>
<g>
	<path class="st0" d="M125.91,113.12l-0.01,5.59l0,0.13c0,0.33-0.01,0.67-0.03,1c-0.04,1.69-0.1,3.38-0.19,5.06v-5.06l-10.41-0.06
		l-12.77-0.07l-12.77-0.07V90.2c3.06,2,6.2,3.8,9.41,5.38c1.11,0.55,2.23,1.07,3.36,1.57c4.15,1.83,8.42,3.29,12.77,4.4
		c3.37,0.86,6.8,1.49,10.26,1.9c0.05,0.81,0.1,1.61,0.15,2.42c0.03,0.64,0.07,1.28,0.09,1.92
		C125.84,109.57,125.89,111.35,125.91,113.12z"/>
</g>
<path class="st1" d="M64.18,60.69V169.5l-12.77-0.07l-25.54-0.14l-5.05-0.03l-7.72-0.04l-5.6-0.03c-1.16-3.94-2.2-7.97-3.11-12.07
	c-0.87-3.96-1.62-7.98-2.23-12.07l10.93,0.06l1.98,0.01c0.65,4.08,1.45,8.1,2.39,12.07l8.4,0.04l25.54,0.14v-36.16l-25.54-0.14
	L13.09,121h-0.18l-12.59-0.07v-12.96c0.18-3.76,0.47-7.48,0.87-11.15c0.11-1.05,0.24-2.09,0.37-3.13c0.79,0.03,1.59,0.04,2.39,0.04
	c3.09,0,6.14-0.22,9.14-0.64v15.13c-0.01,0.24-0.02,0.49-0.03,0.73h0.03l12.77,0.07l25.54,0.14V74.64c1.99-1.77,3.92-3.65,5.79-5.64
	C59.64,66.4,61.97,63.63,64.18,60.69z"/>
<polyline class="st0" points="0.32,106.18 0.32,95.03 0.32,85.65 0.32,76.28 0.32,66.9 0.32,24.43 "/>
<polyline class="st0" points="13.09,143.32 13.09,131.26 13.09,124.25 13.09,119.21 "/>
<line class="st0" x1="13.09" y1="107.16" x2="13.09" y2="106.43"/>
<polyline class="st0" points="13.09,91.3 13.09,85.73 13.09,76.35 13.09,66.97 13.09,24.43 "/>
<polyline class="st0" points="25.86,155.44 25.86,143.39 25.86,131.34 25.86,119.28 "/>
<polyline class="st0" points="25.86,107.23 25.86,100.92 25.86,95.17 25.86,88.19 25.86,85.8 25.86,76.42 25.86,67.05 25.86,24.43 
	"/>
<polyline class="st0" points="38.64,155.52 38.64,143.46 38.64,131.41 38.64,119.35 "/>
<polyline class="st0" points="38.64,107.3 38.64,96.08 38.64,95.24 38.64,85.87 38.64,82.23 38.64,76.49 38.64,67.12 38.64,24.43 
	"/>
<line class="st0" x1="64.18" y1="58.9" x2="64.18" y2="24.43"/>
<line class="st0" x1="76.95" y1="61.89" x2="76.95" y2="24.43"/>
<polyline class="st0" points="102.5,192.15 102.5,202.66 102.5,214.71 "/>
<polyline class="st0" points="102.5,178.55 102.5,171.85 102.5,162.47 102.5,119.43 "/>
<polyline class="st0" points="125.27,195.55 125.27,201.73 125.27,213.78 "/>
<polyline class="st0" points="80.44,16.25 80.44,-3.91 80.44,-7.11 "/>
<polyline class="st0" points="80.44,63.53 80.44,55.26 80.44,39.58 80.44,23.91 80.44,-48.27 "/>
<polyline class="st0" points="89.72,74.87 89.72,67.4 89.72,24.43 "/>
<g>
	<polyline class="st0" points="0.32,271.77 0.32,242.81 0.32,235.22 0.32,225.85 0.32,220.49 0.32,213.34 0.32,208.43 0.32,203.52 
		0.32,197.71 0.32,191.47 0.32,185.22 0.32,179.41 0.32,167.36 0.32,155.31 0.32,143.25 0.32,131.19 0.32,124.59 0.32,119.14 	"/>
	<line class="st0" x1="13.09" y1="179.49" x2="13.09" y2="167.43"/>
	<polyline class="st0" points="13.09,271.77 13.09,242.88 13.09,235.29 13.09,225.92 13.09,220.56 13.09,213.42 13.09,208.51 
		13.09,203.59 13.09,197.78 13.09,191.54 13.09,185.29 13.09,183.29 	"/>
	<polyline class="st0" points="25.86,167.5 25.86,173.3 25.86,179.56 	"/>
	<polyline class="st0" points="25.86,185.36 25.86,191.61 25.86,196.03 	"/>
	<polyline class="st0" points="25.86,207.92 25.86,208.58 25.86,213.49 25.86,220.63 25.86,225.99 25.86,235.36 25.86,242.95 
		25.86,271.77 	"/>
	<polyline class="st0" points="32.01,167.5 32.01,167.53 32.01,173.34 32.01,179.56 32.01,179.59 	"/>
	<polyline class="st0" points="32.01,203.7 32.01,203.67 32.01,197.88 32.01,193.65 32.01,191.64 32.01,191.61 32.01,185.39 	"/>
	<polyline class="st0" points="32.01,208.61 32.01,213.49 32.01,213.52 32.01,216.72 32.01,220.67 32.01,225.99 32.01,226.02 
		32.01,235.36 32.01,235.4 32.01,242.95 32.01,242.99 32.01,271.77 	"/>
	<polyline class="st0" points="38.64,167.57 38.64,173.37 38.64,179.63 	"/>
	<polyline class="st0" points="38.64,271.77 38.64,243.02 38.64,235.44 38.64,226.06 38.64,224.76 38.64,220.7 38.64,215.43 
		38.64,213.56 38.64,208.65 	"/>
	<polyline class="st0" points="38.64,203.74 38.64,197.92 38.64,191.68 38.64,185.43 	"/>
	<polyline class="st0" points="45.26,167.57 45.26,167.61 45.26,173.41 45.26,179.63 45.26,179.66 	"/>
	<polyline class="st0" points="45.26,208.68 45.26,213.35 45.26,213.56 45.26,213.59 45.26,220.74 45.26,223.11 45.26,224.76 
		45.26,226.06 45.26,226.1 	"/>
	<polyline class="st0" points="45.26,231.59 45.26,235.44 45.26,235.47 45.26,243.02 45.26,243.06 45.26,271.77 	"/>
	<polyline class="st0" points="45.26,203.77 45.26,203.74 45.26,197.96 45.26,191.72 45.26,191.68 45.26,185.47 	"/>
	<polyline class="st0" points="64.18,167.71 64.18,173.52 64.18,179.77 	"/>
	<line class="st0" x1="64.18" y1="271.77" x2="64.18" y2="246.08"/>
	<polyline class="st0" points="64.18,203.88 64.18,198.06 64.18,191.82 64.18,185.57 	"/>
	<polyline class="st0" points="70.33,167.71 70.33,167.75 70.33,173.55 70.33,179.77 70.33,179.8 70.33,185.61 70.33,191.82 
		70.33,191.86 70.33,198.09 70.33,203.88 70.33,203.91 70.33,208.82 70.33,213.7 70.33,213.73 70.33,220.88 70.33,226.2 
		70.33,226.23 70.33,231.38 70.33,234.33 70.33,235.58 70.33,235.61 70.33,241.77 70.33,243.17 70.33,243.2 70.33,246.08 
		70.33,248.51 70.33,271.77 	"/>
	<polyline class="st0" points="76.95,167.78 76.95,173.59 76.95,179.84 	"/>
	<polyline class="st0" points="76.95,243.24 76.95,244.65 76.95,271.77 	"/>
	<polyline class="st0" points="83.58,168.68 83.58,173.62 83.58,179.88 	"/>
	<polyline class="st0" points="83.58,240.06 83.58,243.27 83.58,244.13 83.58,245.54 83.58,272.66 	"/>
	<polyline class="st0" points="102.5,271.77 102.5,243.38 102.5,235.79 102.5,226.42 102.5,222.08 102.5,221.06 	"/>
	<polyline class="st0" points="102.5,185.78 102.5,192.04 102.5,198.27 	"/>
	<polyline class="st0" points="102.5,204.09 102.5,209 102.5,212.4 	"/>
	<polyline class="st0" points="102.5,179.98 102.5,167.93 102.5,155.87 102.5,143.82 102.5,137.57 102.5,131.76 	"/>
	<polyline class="st0" points="115.27,271.77 115.27,243.45 115.27,235.86 115.27,226.48 115.27,221.13 115.27,213.98 
		115.27,209.07 115.27,204.18 	"/>
	<line class="st0" x1="115.27" y1="191.57" x2="115.27" y2="185.86"/>
	<polyline class="st0" points="115.27,180.05 115.27,175.23 115.27,173.8 115.27,168 115.27,155.94 115.27,154.4 115.27,143.89 
		115.27,137.64 115.27,131.84 	"/>
	<polyline class="st0" points="125.68,271.77 125.68,243.51 125.68,235.92 125.68,226.54 125.68,221.18 125.68,214.04 
		125.68,209.13 125.68,204.22 125.68,198.4 125.68,192.16 125.68,185.91 125.68,183.38 	"/>
	<line class="st0" x1="125.68" y1="180.11" x2="125.68" y2="168.06"/>
	<polyline class="st0" points="138.92,274 138.92,243.58 138.92,235.99 138.92,226.62 138.92,221.26 138.92,214.12 138.92,209.21 
		138.92,204.3 138.92,198.48 138.92,192.24 138.92,185.99 138.92,180.19 138.92,168.13 138.92,156.07 138.92,144.02 138.92,131.96 
		138.92,119.91 138.92,107.86 138.92,95.8 138.92,86.43 138.92,77.05 138.92,67.68 138.92,26.66 	"/>
	<polyline class="st0" points="89.72,167.86 89.72,173.66 89.72,179.91 	"/>
	<polyline class="st0" points="89.72,271.77 89.72,243.31 89.72,235.72 89.72,235.08 89.72,226.98 89.72,226.35 89.72,220.99 
		89.72,217.76 89.72,213.84 89.72,208.93 89.72,204.02 	"/>
	<polyline class="st0" points="89.72,198.2 89.72,191.96 89.72,185.71 	"/>
	<polyline class="st0" points="96.35,167.86 96.35,167.89 96.35,179.91 96.35,179.95 	"/>
	<polyline class="st0" points="96.35,271.77 96.35,243.35 96.35,243.31 96.35,235.76 96.35,235.72 96.35,235.08 96.35,228.83 
		96.35,226.38 96.35,226.35 96.35,221.02 96.35,220.02 96.35,217.76 96.35,213.88 96.35,213.84 96.35,209.8 96.35,208.97 
		96.35,204.06 	"/>
	<polyline class="st0" points="96.35,198.24 96.35,192 96.35,191.96 96.35,185.75 	"/>
	<polyline class="st0" points="51.41,167.64 51.41,173.44 51.41,179.7 	"/>
	<polyline class="st0" points="51.41,208.72 51.41,213.63 51.41,220.25 51.41,220.77 51.41,226.13 51.41,229.17 	"/>
	<polyline class="st0" points="51.41,237.05 51.41,243.1 51.41,271.77 	"/>
	<polyline class="st0" points="51.41,203.81 51.41,197.99 51.41,191.75 51.41,185.5 	"/>
	<polyline class="st0" points="58.03,167.64 58.03,167.68 58.03,173.49 58.03,179.7 58.03,179.74 	"/>
	<polyline class="st0" points="58.03,271.77 58.03,243.13 58.03,243.1 58.03,242.09 	"/>
	<polyline class="st0" points="58.03,203.84 58.03,203.81 58.03,198.03 58.03,191.79 58.03,191.75 58.03,185.54 	"/>
</g>
<polyline class="st0" points="51.41,72.86 51.41,67.19 51.41,24.43 "/>
<polyline class="st0" points="13.09,95.1 25.86,95.17 38.64,95.24 40.33,95.25 51.41,95.32 "/>
<line class="st0" x1="99.13" y1="95.58" x2="89.72" y2="95.53"/>
<line class="st0" x1="76.95" y1="95.46" x2="64.18" y2="95.39"/>
<polyline class="st0" points="202.24,181.78 138.92,181.43 125.68,181.35 115.27,181.29 108.02,181.25 "/>
<line class="st0" x1="76.95" y1="86.08" x2="64.18" y2="86.01"/>
<polyline class="st0" points="92.13,76.79 102.5,76.85 115.27,76.92 125.68,76.98 138.92,77.05 202.24,77.4 "/>
<polyline class="st0" points="76.95,76.71 73.42,76.68 65.42,76.64 64.18,76.64 "/>
<polyline class="st0" points="202.24,68.03 138.92,67.68 125.68,67.6 115.27,67.54 102.5,67.47 89.72,67.4 81.73,67.36 "/>
<line class="st0" x1="76.95" y1="67.33" x2="64.18" y2="67.26"/>
<polyline class="st0" points="125.77,107.78 125.68,107.78 115.27,107.73 102.5,107.66 89.72,107.58 "/>
<line class="st0" x1="76.95" y1="107.51" x2="64.18" y2="107.44"/>
<line class="st0" x1="80.75" y1="16.25" x2="80.44" y2="16.25"/>
<line class="st0" x1="76.95" y1="119.57" x2="64.18" y2="119.5"/>
<line class="st0" x1="76.95" y1="131.62" x2="64.18" y2="131.55"/>
<polyline class="st0" points="89.72,155.8 102.5,155.87 115.27,155.94 121.2,155.98 "/>
<line class="st0" x1="76.95" y1="155.73" x2="64.18" y2="155.66"/>
<polyline class="st0" points="117.8,168.01 115.27,168 111.38,167.98 102.5,167.93 96.35,167.89 95.87,167.89 89.72,167.86 "/>
<polyline class="st0" points="88.99,96.92 101.34,96.99 200.55,97.58 "/>
<line class="st0" x1="76.95" y1="167.78" x2="64.18" y2="167.71"/>
<g>
	<polyline class="st0" points="-59.82,94.69 0.32,95.03 1.19,95.03 	"/>
	<polyline class="st0" points="-59.82,85.32 0.32,85.65 13.09,85.73 25.86,85.8 31.72,85.83 38.64,85.87 51.41,85.94 	"/>
	<polyline class="st0" points="-59.82,75.94 0.32,76.28 13.09,76.35 25.86,76.42 38.64,76.49 46.99,76.54 51.41,76.56 	"/>
	<polyline class="st0" points="-59.82,66.57 0.32,66.9 13.09,66.97 25.86,67.05 38.64,67.12 51.41,67.19 57.19,67.22 	"/>
	<polyline class="st0" points="-59.89,106.75 0.28,107.08 0.32,107.08 	"/>
	<polyline class="st0" points="-59.97,118.8 0.14,119.14 0.32,119.14 	"/>
	<polyline class="st0" points="-60.04,130.86 0.32,131.19 0.75,131.2 13.09,131.26 13.58,131.27 25.86,131.34 38.64,131.41 
		51.41,131.48 	"/>
	<polyline class="st0" points="-60.19,154.97 0.32,155.31 4.39,155.33 	"/>
	<polyline class="st0" points="-60.27,167.02 0.32,167.36 7.5,167.4 	"/>
	<polyline class="st0" points="76.95,191.89 70.33,191.86 64.18,191.82 58.03,191.79 51.41,191.75 45.26,191.72 38.64,191.68 
		32.01,191.64 30.93,191.64 25.86,191.61 23.55,191.6 	"/>
	<polyline class="st0" points="16.76,191.56 13.09,191.54 0.32,191.47 -60.42,191.13 	"/>
	<polyline class="st0" points="83.58,191.93 89.72,191.96 96.35,192 102.5,192.04 107.64,192.07 115,192.11 	"/>
	<polyline class="st0" points="121.76,192.14 125.68,192.16 138.92,192.24 201.64,192.59 	"/>
	<polyline class="st0" points="76.95,185.64 70.33,185.61 64.18,185.57 	"/>
	<polyline class="st0" points="13.93,185.29 13.09,185.29 0.32,185.22 -60.42,184.88 	"/>
	<polyline class="st0" points="124.61,185.91 125.68,185.91 138.92,185.99 201.64,186.34 	"/>
	<line class="st0" x1="38.64" y1="203.74" x2="38.13" y2="203.73"/>
	<polyline class="st0" points="64.18,203.88 70.33,203.91 76.95,203.95 	"/>
	<polyline class="st0" points="23.22,203.65 13.09,203.59 0.32,203.52 -60.5,203.18 	"/>
	<polyline class="st0" points="115.28,204.16 125.68,204.22 138.92,204.3 201.56,204.64 	"/>
	<polyline class="st0" points="76.95,198.13 70.33,198.09 64.18,198.06 58.03,198.03 51.41,197.99 45.26,197.96 38.64,197.92 
		34.44,197.9 32.01,197.88 26.87,197.85 	"/>
	<polyline class="st0" points="19.92,197.81 13.09,197.78 0.32,197.71 -58.13,197.38 	"/>
	<polyline class="st0" points="118.58,198.37 125.68,198.4 138.92,198.48 203.93,198.84 	"/>
	<polyline class="st0" points="76.95,213.77 70.33,213.73 64.18,213.7 	"/>
	<polyline class="st0" points="58.03,213.67 51.41,213.63 45.46,213.59 45.26,213.59 38.64,213.56 37.18,213.55 32.01,213.52 
		29.65,213.51 25.86,213.49 13.09,213.42 0.32,213.34 -60.55,213.01 	"/>
	<polyline class="st0" points="83.58,213.81 89.72,213.84 93.12,213.86 96.35,213.88 101.36,213.91 102.5,213.91 	"/>
	<polyline class="st0" points="108.84,213.95 115.27,213.98 125.68,214.04 138.92,214.12 201.5,214.47 	"/>
	<polyline class="st0" points="64.18,208.79 70.33,208.82 76.95,208.86 	"/>
	<polyline class="st0" points="26.29,208.58 25.86,208.58 13.09,208.51 0.32,208.43 -60.55,208.09 	"/>
	<polyline class="st0" points="83.58,208.9 89.72,208.93 96.35,208.97 96.98,208.97 102.5,209 104.93,209.01 	"/>
	<polyline class="st0" points="112.2,209.06 115.27,209.07 125.68,209.13 138.92,209.21 201.5,209.55 	"/>
	<polyline class="st0" points="76.95,226.27 70.33,226.23 64.18,226.2 	"/>
	<polyline class="st0" points="-63,225.49 0.32,225.85 13.09,225.92 25.86,225.99 32.01,226.02 38.64,226.06 39.82,226.06 	"/>
	<polyline class="st0" points="48.19,226.11 51.41,226.13 57.65,226.17 58.03,226.17 	"/>
	<polyline class="st0" points="83.58,226.31 89.72,226.35 90.37,226.35 96.35,226.38 98.67,226.39 102.5,226.42 115.27,226.48 
		125.68,226.54 138.92,226.62 199.06,226.95 	"/>
	<polyline class="st0" points="76.95,220.92 70.33,220.88 64.18,220.85 	"/>
	<polyline class="st0" points="58.03,220.81 51.92,220.77 51.41,220.77 45.26,220.74 43.08,220.72 38.64,220.7 35.14,220.68 
		32.01,220.67 25.86,220.63 13.09,220.56 0.32,220.49 -63,220.14 	"/>
	<polyline class="st0" points="83.58,220.95 86.68,220.97 89.72,220.99 95.46,221.02 96.35,221.02 102.5,221.06 	"/>
	<polyline class="st0" points="103.35,221.06 115.27,221.13 125.68,221.18 138.92,221.26 199.06,221.6 	"/>
	<polyline class="st0" points="76.95,235.65 70.33,235.61 64.18,235.58 	"/>
	<polyline class="st0" points="-63,234.87 0.32,235.22 13.09,235.29 25.86,235.36 32.01,235.4 38.64,235.44 45.26,235.47 
		49.56,235.49 	"/>
	<polyline class="st0" points="83.58,235.69 88.99,235.72 89.72,235.72 96.35,235.76 102.5,235.79 115.27,235.86 125.68,235.92 
		138.92,235.99 199.06,236.33 	"/>
	<polyline class="st0" points="-63,242.46 0.32,242.81 13.09,242.88 25.86,242.95 32.01,242.99 38.64,243.02 45.26,243.06 
		51.41,243.1 58.03,243.13 59.55,243.14 	"/>
	<polyline class="st0" points="64.18,243.17 70.33,243.2 76.95,243.24 	"/>
	<path class="st2" d="M120.43,180.08l-5.16-0.03l-1.92-0.01l-10.85-0.06l-6.15-0.03l-6.62-0.04l-6.15-0.03l-6.62-0.04v63.4
		l2.14,0.01c1.51-1.02,3.01-2.08,4.48-3.19v-36.07l6.15,0.03l6.62,0.04l4.1,0.02l2.05,0.01l5.69,0.03c-1.05,1.67-2.14,3.3-3.25,4.89
		c-0.38,0.56-0.78,1.12-1.17,1.67c-0.42,0.58-0.83,1.15-1.26,1.72v8.66l0.86,0c1.89-2.29,3.72-4.66,5.49-7.12
		c1.15-1.59,2.28-3.22,3.36-4.89c1.05-1.59,2.07-3.22,3.07-4.88v-0.02h0.01c1.14-1.89,2.24-3.83,3.3-5.79
		c1.1-2.04,2.16-4.11,3.18-6.22c0.99-2.04,1.94-4.12,2.85-6.23c0.36-0.84,0.71-1.68,1.06-2.53v-3.27L120.43,180.08z M116.17,189.73
		c-0.3,0.62-0.6,1.23-0.9,1.84v0.54H115c-1.06,2.1-2.17,4.18-3.33,6.22l-7.54-0.04l-1.63-0.01l-6.15-0.03l-6.62-0.04l-6.15-0.03
		v-12.49l6.15,0.03l6.62,0.04l6.15,0.03l8.27,0.05l4.5,0.02l2.7,0.02C117.38,187.18,116.78,188.46,116.17,189.73z"/>
	<polyline class="st0" points="79.09,243.25 83.58,243.27 89.72,243.31 96.35,243.35 102.5,243.38 115.27,243.45 125.68,243.51 
		138.92,243.58 199.06,243.92 	"/>
	<path class="st2" d="M25.86,185.36l-5.27-0.03c0.57,1.29,1.17,2.57,1.78,3.85c0.39,0.81,0.78,1.62,1.18,2.42
		c0.74,1.5,1.52,2.97,2.31,4.43c0.33,0.61,0.67,1.22,1.01,1.82c0.56,1,1.14,2,1.72,2.97c0.55,0.94,1.13,1.88,1.75,2.86l1.67,0.01
		l6.12,0.04c0.16,0.25,0.33,0.5,0.51,0.75v-0.75l6.62,0.04l6.15,0.04l6.62,0.04l6.15,0.04v42.2c-1.56-0.93-3.11-1.92-4.63-2.94
		c-0.51-0.34-1.02-0.69-1.52-1.05c-2.26-1.58-4.47-3.26-6.62-5.04c-0.62-0.51-1.19-0.99-1.81-1.55l-0.04,0
		c-1.46-1.26-2.9-2.56-4.3-3.9c-1.86-1.77-3.67-3.61-5.44-5.53l5.44,0.03l2.93,0.02c1.06,1.04,2.13,2.07,3.22,3.06
		c0.28,0.25,0.56,0.51,0.84,0.76l0.13,0.01l1.52,1.4c0.52,0.48,1.03,0.9,1.56,1.33c0.85,0.7,1.7,1.38,2.57,2.05v0.81l1.07,0
		c-0.36-0.27-0.71-0.54-1.07-0.82v-25.97l-6.62-0.04l-6.15-0.04l-3.66-0.02l-2.96-0.01l-5.05-0.03l-1.58,0l-5.72-0.04
		c-0.15-0.22-0.28-0.43-0.43-0.65c-0.9-1.4-1.79-2.83-2.64-4.28c-1.14-1.91-2.24-3.85-3.3-5.84c-1.09-2.05-2.15-4.13-3.16-6.25
		c-0.98-2.05-1.93-4.14-2.83-6.26c-0.28-0.66-0.56-1.33-0.83-2v-3.81l5.05,0.03l7.11,0.04l0.61,0l6.15,0.03l6.62,0.04l6.62,0.04
		l6.15,0.03l6.62,0.04l6.15,0.03v5.8l-6.15-0.03l-6.62-0.04l-6.15-0.04l-6.62-0.04l-6.62-0.04l-4.2-0.02L25.86,185.36z"/>
	<polyline class="st0" points="76.95,179.84 70.33,179.8 64.18,179.77 	"/>
	<polyline class="st0" points="13.09,179.49 11.58,179.48 0.32,179.41 -60.35,179.07 	"/>
	<polyline class="st0" points="125.68,180.11 126.97,180.12 138.92,180.19 201.71,180.53 	"/>
	<polyline class="st0" points="-60.12,142.91 0.32,143.25 2.16,143.26 	"/>
</g>
<polyline class="st0" points="15.07,143.33 25.86,143.39 38.64,143.46 51.41,143.53 "/>
<polyline class="st0" points="89.72,143.75 102.5,143.82 115.27,143.89 123.62,143.93 "/>
<line class="st0" x1="76.95" y1="143.68" x2="64.18" y2="143.6"/>
<g>
	<path class="st2" d="M54.62,40.45v-4.9c0-2.16,1.85-3.92,4.13-3.92h27.65c2.27,0,4.13,1.76,4.13,3.92v4.9H54.62z"/>
	<path class="st2" d="M86.39,32.13c2,0,3.63,1.54,3.63,3.42v4.4h-34.9v-4.4c0-1.89,1.63-3.42,3.63-3.42H86.39 M86.39,31.13H58.74
		c-2.56,0-4.63,1.98-4.63,4.42v5.4h36.9v-5.4C91.02,33.11,88.94,31.13,86.39,31.13L86.39,31.13z"/>
</g>
<g>
	<path class="st2" d="M73.7,16.45c-8.04-4.8-16.08,2.46-24.12-2.34c0-2.94,0-5.88,0-8.82c8.04,3.24,16.08-5.58,24.12-2.34
		C73.7,7.45,73.7,11.95,73.7,16.45z"/>
	<path class="st3" d="M73.7,16.45c-8.04-4.8-16.08,2.46-24.12-2.34c0-2.94,0-5.88,0-8.82c8.04,3.24,16.08-5.58,24.12-2.34
		C73.7,7.45,73.7,11.95,73.7,16.45z"/>
</g>
<line class="st4" x1="73.7" y1="8.58" x2="74.17" y2="32.24"/>
<g>
	<path class="st2" d="M44.58,54.4c0.7-5.58,5.17-9.83,10.41-9.83h35.32c5.79,0,10.51,5.13,10.51,11.44v7.11l-28.94-8.16l-27.3,8.52
		V54.4z"/>
	<path class="st2" d="M90.31,45.08c5.52,0,10.01,4.91,10.01,10.94v6.45l-28.16-7.94l-0.29-0.08l-0.28,0.09l-26.51,8.27v-8.34
		c0.69-5.36,4.94-9.39,9.91-9.39H90.31 M90.31,44.08H54.98c-5.58,0-10.18,4.5-10.91,10.33v9.76l27.81-8.68l29.42,8.3
		c0.01-0.18,0.01-0.37,0.01-0.55v-7.22C101.31,49.42,96.39,44.08,90.31,44.08L90.31,44.08z"/>
</g>
<g>
	<path class="st4" d="M211.43,93.62l-20.16,31.05v22.27h-6.02v-22.27l-19.65-31.05h6.99l11.45,18.01l2.19,3.48
		c0.29,0.42,0.65,0.99,1.09,1.72l1.05,1.76h0.16c0.47-0.78,0.82-1.37,1.05-1.76l1.05-1.72l2.23-3.48l11.41-18.01H211.43z"/>
	<path class="st4" d="M288.85,135.65h-26.99l-4.1,11.29h-6.37l19.53-53.32h8.44l19.92,53.32h-6.29L288.85,135.65z M287.09,131.12
		l-11.84-32.58l-11.68,32.58H287.09z"/>
	<path class="st4" d="M381.31,108.07h-5.98c0-4.3-0.72-7.02-2.15-8.18c-1.43-1.16-4.8-1.74-10.12-1.74c-6.3,0-10.37,0.55-12.19,1.66
		c-1.82,1.11-2.73,3.57-2.73,7.4c0,4.3,0.72,6.91,2.15,7.85c1.43,0.94,5.69,1.58,12.77,1.91c8.31,0.37,13.59,1.42,15.84,3.16
		c2.25,1.75,3.38,5.65,3.38,11.72c0,6.56-1.3,10.81-3.89,12.73c-2.59,1.93-8.31,2.89-17.17,2.89c-7.68,0-12.79-0.97-15.33-2.91
		c-2.54-1.94-3.81-5.85-3.81-11.74l-0.04-2.38h5.98v1.33c0,4.77,0.73,7.73,2.19,8.89c1.46,1.16,5.2,1.74,11.21,1.74
		c6.9,0,11.15-0.58,12.73-1.74c1.59-1.16,2.38-4.25,2.38-9.28c0-3.25-0.54-5.42-1.62-6.5c-1.08-1.08-3.34-1.72-6.78-1.93l-6.25-0.31
		l-5.94-0.31c-9.04-0.62-13.55-5.31-13.55-14.06c0-6.07,1.31-10.12,3.95-12.15c2.63-2.03,7.88-3.05,15.74-3.05
		c7.97,0,13.16,0.94,15.59,2.83C380.1,97.79,381.31,101.85,381.31,108.07z"/>
	<path class="st4" d="M462.29,135.65H435.3l-4.1,11.29h-6.37l19.53-53.32h8.44l19.92,53.32h-6.29L462.29,135.65z M460.53,131.12
		L448.7,98.54l-11.68,32.58H460.53z"/>
	<path class="st4" d="M177.66,162.95v20h-2.26v-20H177.66z"/>
	<path class="st4" d="M206.09,162.95v20h-3.71l-8.38-13.61l-1.36-2.24l-0.67-1.11l-0.67-1.11h-0.06l0.01,0.75l0.01,0.76v1.49v15.07
		h-2.26v-20h3.69l7.31,11.92l1.9,3.13l0.95,1.55l0.94,1.57h0.06l-0.01-0.75l-0.01-0.76v-1.49v-15.18H206.09z"/>
	<path class="st4" d="M224.37,165.04v17.9h-2.26v-17.9h-6.52v-2.09h15.23v2.09H224.37z"/>
	<path class="st4" d="M241.79,164.85v6.81h10.15v1.9h-10.15v7.47h10.59v1.9h-12.85v-20h12.85v1.9H241.79z"/>
	<path class="st4" d="M262.78,182.94v-20h9.52c2.15,0,3.66,0.42,4.54,1.27s1.32,2.32,1.32,4.42c0,1.85-0.24,3.13-0.72,3.86
		c-0.48,0.73-1.39,1.2-2.74,1.41v0.04c2.12,0.16,3.18,1.45,3.18,3.87v5.11h-2.26v-4.6c0-2.33-1.01-3.5-3.03-3.5h-0.75h-6.81v8.1
		H262.78z M265.04,172.94h6.52c1.72,0,2.89-0.26,3.52-0.78c0.62-0.52,0.94-1.51,0.94-2.95c0-1.81-0.23-2.98-0.7-3.53
		s-1.46-0.82-2.98-0.82h-7.29V172.94z"/>
	<path class="st4" d="M306.05,162.95v20h-3.71l-8.38-13.61l-1.36-2.24l-0.67-1.11l-0.67-1.11h-0.06l0.01,0.75l0.01,0.76v1.49v15.07
		h-2.26v-20h3.69l7.31,11.92l1.9,3.13l0.95,1.55l0.94,1.57h0.06l-0.01-0.75l-0.01-0.76v-1.49v-15.18H306.05z"/>
	<path class="st4" d="M329.65,178.71h-10.12l-1.54,4.23h-2.39l7.32-20h3.16l7.47,20h-2.36L329.65,178.71z M328.99,177.01
		l-4.44-12.22l-4.38,12.22H328.99z"/>
	<path class="st4" d="M350.09,165.04v17.9h-2.26v-17.9h-6.52v-2.09h15.23v2.09H350.09z"/>
	<path class="st4" d="M368.31,162.95v20h-2.26v-20H368.31z"/>
	<path class="st4" d="M386.97,162.74c3.78,0,6.14,0.55,7.09,1.66s1.42,3.86,1.42,8.28c0,4.76-0.45,7.69-1.36,8.8
		s-3.29,1.67-7.15,1.67c-3.84,0-6.22-0.55-7.14-1.66c-0.92-1.1-1.38-3.96-1.38-8.55v-1.41l0.03-1.89c0-2.66,0.6-4.47,1.79-5.44
		C381.47,163.23,383.7,162.74,386.97,162.74z M386.96,164.65c-3.16,0-5.01,0.35-5.55,1.05s-0.81,3.12-0.81,7.24
		c0,4.13,0.27,6.55,0.81,7.25s2.39,1.05,5.55,1.05c3.17,0,5.03-0.35,5.57-1.05s0.81-3.12,0.81-7.25v-1.3l-0.01-1.89
		c0-2.21-0.37-3.61-1.11-4.2S389.71,164.65,386.96,164.65z"/>
	<path class="st4" d="M422.64,162.95v20h-3.71l-8.38-13.61l-1.36-2.24l-0.67-1.11l-0.67-1.11h-0.06l0.01,0.75l0.01,0.76v1.49v15.07
		h-2.26v-20h3.69l7.31,11.92l1.9,3.13l0.95,1.55l0.94,1.57h0.06l-0.01-0.75l-0.01-0.76v-1.49v-15.18H422.64z"/>
	<path class="st4" d="M446.24,178.71h-10.12l-1.54,4.23h-2.39l7.32-20h3.16l7.47,20h-2.36L446.24,178.71z M445.58,177.01
		l-4.44-12.22l-4.38,12.22H445.58z"/>
	<path class="st4" d="M461.96,162.95v17.9h10.28v2.09H459.7v-20H461.96z"/>
	<path class="st4" d="M194.21,197.35v18h-2.03v-14.4v-1.08l0.01-0.54l0.01-0.54h-0.05l-0.16,0.42c-0.08,0.21-0.13,0.35-0.16,0.41
		l-0.34,0.84l-6.13,14.88h-2.03l-6.14-14.71l-0.36-0.83l-0.16-0.42c-0.04-0.1-0.1-0.23-0.16-0.41h-0.05l0.01,0.49l0.01,0.5v0.99
		v14.4h-2.03v-18h3.52l4.8,11.64l0.76,1.89l0.38,0.94l0.37,0.94h0.05l0.37-0.94c0.18-0.45,0.31-0.76,0.37-0.94l0.78-1.87l4.77-11.65
		H194.21z"/>
	<path class="st4" d="M215.44,211.53h-9.11l-1.38,3.81h-2.15l6.59-18h2.85l6.72,18h-2.12L215.44,211.53z M214.85,210l-3.99-11
		l-3.94,11H214.85z"/>
	<path class="st4" d="M227.55,215.34v-18h8.57c1.93,0,3.3,0.38,4.09,1.15c0.79,0.77,1.19,2.09,1.19,3.98c0,1.66-0.22,2.82-0.65,3.47
		c-0.43,0.66-1.25,1.08-2.46,1.27v0.04c1.91,0.14,2.86,1.3,2.86,3.48v4.6h-2.03v-4.14c0-2.1-0.91-3.15-2.73-3.15h-0.67h-6.13v7.29
		H227.55z M229.58,206.34h5.87c1.55,0,2.6-0.24,3.16-0.71c0.56-0.47,0.84-1.36,0.84-2.66c0-1.62-0.21-2.68-0.63-3.18
		c-0.42-0.49-1.31-0.74-2.68-0.74h-6.57V206.34z"/>
	<path class="st4" d="M253.16,197.35v18h-2.03v-18H253.16z"/>
	<path class="st4" d="M278.75,197.35v18h-3.34l-7.54-12.25l-1.23-2.02l-0.61-1l-0.61-1h-0.05l0.01,0.67l0.01,0.69v1.34v13.57h-2.03
		v-18h3.32l6.58,10.73l1.71,2.82l0.86,1.4l0.84,1.41h0.05l-0.01-0.67l-0.01-0.69V211v-13.66H278.75z"/>
	<path class="st4" d="M290.23,199.06v6.13h9.14v1.71h-9.14v6.72h9.53v1.71H288.2v-18h11.56v1.71H290.23z"/>
	<path class="st4" d="M328.21,202.22h-2.02c0-1.45-0.24-2.37-0.73-2.76c-0.48-0.39-1.62-0.59-3.42-0.59c-2.13,0-3.5,0.19-4.11,0.56
		s-0.92,1.21-0.92,2.5c0,1.45,0.24,2.33,0.72,2.65s1.92,0.53,4.31,0.65c2.8,0.12,4.59,0.48,5.35,1.07c0.76,0.59,1.14,1.91,1.14,3.96
		c0,2.21-0.44,3.65-1.31,4.3c-0.87,0.65-2.81,0.97-5.79,0.97c-2.59,0-4.32-0.33-5.17-0.98c-0.86-0.65-1.29-1.97-1.29-3.96l-0.01-0.8
		h2.02v0.45c0,1.61,0.25,2.61,0.74,3c0.49,0.39,1.75,0.59,3.78,0.59c2.33,0,3.76-0.2,4.3-0.59c0.54-0.39,0.8-1.43,0.8-3.13
		c0-1.1-0.18-1.83-0.55-2.2c-0.37-0.36-1.13-0.58-2.29-0.65l-2.11-0.11l-2-0.11c-3.05-0.21-4.58-1.79-4.58-4.75
		c0-2.05,0.44-3.41,1.33-4.1s2.66-1.03,5.31-1.03c2.69,0,4.44,0.32,5.26,0.96C327.8,198.75,328.21,200.12,328.21,202.22z"/>
	<path class="st4" d="M339.04,199.06v6.13h9.14v1.71h-9.14v6.72h9.53v1.71H337v-18h11.56v1.71H339.04z"/>
	<path class="st4" d="M357.93,215.34v-18h8.57c1.93,0,3.3,0.38,4.09,1.15c0.79,0.77,1.19,2.09,1.19,3.98c0,1.66-0.22,2.82-0.65,3.47
		c-0.43,0.66-1.25,1.08-2.46,1.27v0.04c1.91,0.14,2.86,1.3,2.86,3.48v4.6h-2.03v-4.14c0-2.1-0.91-3.15-2.73-3.15h-0.67h-6.13v7.29
		H357.93z M359.96,206.34h5.87c1.55,0,2.6-0.24,3.16-0.71c0.56-0.47,0.84-1.36,0.84-2.66c0-1.62-0.21-2.68-0.63-3.18
		c-0.42-0.49-1.31-0.74-2.68-0.74h-6.57V206.34z"/>
	<path class="st4" d="M393.18,197.35h2.18l-6.37,18h-2.9l-6.43-18h2.16l4.8,13.59l0.47,1.38c0.18,0.54,0.32,1,0.43,1.38h0.05
		c0.26-0.89,0.56-1.8,0.88-2.74L393.18,197.35z"/>
	<path class="st4" d="M405.72,197.35v18h-2.03v-18H405.72z"/>
	<path class="st4" d="M427.73,209.33h2.02v0.69c0,2.45-0.42,3.98-1.25,4.59c-0.83,0.61-2.94,0.92-6.3,0.92
		c-3.02,0-4.93-0.54-5.75-1.62c-0.82-1.08-1.23-3.61-1.23-7.6c0-3.12,0.09-5.08,0.28-5.89c0.18-0.8,0.71-1.52,1.58-2.16
		c1.02-0.74,3.22-1.11,6.6-1.11c2.29,0,3.84,0.36,4.63,1.07c0.8,0.71,1.19,2.09,1.19,4.13l0.01,0.49h-2.02l-0.01-0.55
		c0-1.45-0.23-2.38-0.71-2.79c-0.47-0.41-1.53-0.62-3.18-0.62c-2.9,0-4.67,0.24-5.31,0.72c-0.64,0.48-0.96,1.82-0.96,4.02
		c0,5.05,0.21,8.02,0.65,8.89c0.43,0.87,1.9,1.31,4.42,1.31c2.39,0,3.88-0.19,4.48-0.57c0.59-0.38,0.89-1.33,0.89-2.85
		L427.73,209.33z"/>
	<path class="st4" d="M440.1,199.06v6.13h9.14v1.71h-9.14v6.72h9.53v1.71h-11.56v-18h11.56v1.71H440.1z"/>
	<path class="st4" d="M471.33,202.22h-2.02c0-1.45-0.24-2.37-0.73-2.76c-0.48-0.39-1.62-0.59-3.42-0.59c-2.13,0-3.5,0.19-4.11,0.56
		s-0.92,1.21-0.92,2.5c0,1.45,0.24,2.33,0.72,2.65s1.92,0.53,4.31,0.65c2.8,0.12,4.59,0.48,5.35,1.07c0.76,0.59,1.14,1.91,1.14,3.96
		c0,2.21-0.44,3.65-1.31,4.3c-0.87,0.65-2.81,0.97-5.79,0.97c-2.59,0-4.32-0.33-5.17-0.98c-0.86-0.65-1.29-1.97-1.29-3.96l-0.01-0.8
		h2.02v0.45c0,1.61,0.25,2.61,0.74,3c0.49,0.39,1.75,0.59,3.78,0.59c2.33,0,3.76-0.2,4.3-0.59c0.54-0.39,0.8-1.43,0.8-3.13
		c0-1.1-0.18-1.83-0.55-2.2c-0.37-0.36-1.13-0.58-2.29-0.65l-2.11-0.11l-2-0.11c-3.05-0.21-4.58-1.79-4.58-4.75
		c0-2.05,0.44-3.41,1.33-4.1s2.66-1.03,5.31-1.03c2.69,0,4.44,0.32,5.26,0.96C470.92,198.75,471.33,200.12,471.33,202.22z"/>
</g>
<polyline class="st2" points="38.64,203.74 38.13,203.74 38,205 39,205 "/>
<polyline class="st2" points="58.03,234.73 58.03,235.65 60,236 "/>
<polyline class="st1" points="125.16,131.89 128.94,131.89 129,125 129,122 129,121 129,120 127,120 125.48,119.84 "/>
<g>
</g>
<g>
</g>
<g>
</g>
<g>
</g>
<g>
</g>
<g>
</g>
<g>
</g>
<g>
</g>
<g>
</g>
<g>
</g>
<g>
</g>
<g>
</g>
<g>
</g>
<g>
</g>
<g>
</g>
</svg>
